<svg width="20" height="20" viewBox="0 0 20 20" fill="none" xmlns="http://www.w3.org/2000/svg">
    <g clip-path="url(#clip0_77_347)">
        <path d="M9.99999 12.5001C9.77898 12.5001 9.56702 12.4123 9.41074 12.256C9.25446 12.0998 9.16666 11.8878 9.16666 11.6668C9.1976 11.1223 9.36327 10.5939 9.64878 10.1292C9.93429 9.66451 10.3307 9.27797 10.8025 9.00428C11.1108 8.83533 11.3575 8.57297 11.5073 8.25492C11.657 7.93687 11.702 7.57953 11.6358 7.23428C11.5716 6.90452 11.4104 6.60144 11.1729 6.36389C10.9353 6.12634 10.6323 5.96514 10.3025 5.90095C10.0618 5.85652 9.81421 5.86566 9.57742 5.92773C9.34062 5.98979 9.12041 6.10326 8.93243 6.26005C8.74445 6.41685 8.59331 6.61313 8.48977 6.83495C8.38622 7.05676 8.33281 7.29866 8.33333 7.54345C8.33333 7.76446 8.24553 7.97642 8.08925 8.1327C7.93297 8.28899 7.72101 8.37678 7.49999 8.37678C7.27898 8.37678 7.06702 8.28899 6.91074 8.1327C6.75446 7.97642 6.66666 7.76446 6.66666 7.54345C6.66657 7.05658 6.77315 6.5756 6.97888 6.13433C7.18461 5.69306 7.48451 5.30222 7.85749 4.98928C8.21395 4.69129 8.62877 4.4711 9.07534 4.34285C9.5219 4.2146 9.99034 4.18113 10.4506 4.24457C10.9109 4.30801 11.3528 4.46697 11.748 4.71125C12.1432 4.95553 12.483 5.27973 12.7455 5.66305C13.0081 6.04637 13.1876 6.48034 13.2726 6.93712C13.3575 7.3939 13.3461 7.8634 13.2389 8.31549C13.1317 8.76757 12.9313 9.19227 12.6503 9.56231C12.3694 9.93236 12.0142 10.2396 11.6075 10.4643C11.3968 10.5941 11.2179 10.7695 11.0839 10.9776C10.9499 11.1857 10.8643 11.4212 10.8333 11.6668C10.8333 11.8878 10.7455 12.0998 10.5892 12.256C10.433 12.4123 10.221 12.5001 9.99999 12.5001ZM10.6608 19.8001C12.4608 19.0768 18.3333 16.2326 18.3333 10.0359V5.72678C18.3342 4.85096 18.0588 3.99718 17.5462 3.28705C17.0335 2.57692 16.3099 2.04665 15.4783 1.77178L10.2625 0.0426169C10.0922 -0.0148567 9.90777 -0.0148567 9.73749 0.0426169L4.52166 1.77178C3.69008 2.04665 2.96645 2.57692 2.45383 3.28705C1.9412 3.99718 1.66574 4.85096 1.66666 5.72678V10.0359C1.66666 15.5043 7.50416 18.8493 9.29416 19.7443C9.51056 19.8747 9.75032 19.9615 9.99999 20.0001C10.2308 19.9751 10.4549 19.9073 10.6608 19.8001ZM14.9533 3.35345C15.4521 3.5188 15.8861 3.8371 16.1937 4.26314C16.5012 4.68919 16.6667 5.20132 16.6667 5.72678V10.0359C16.6667 15.1884 11.5942 17.6285 10.0392 18.2535C8.46583 17.4668 3.33333 14.5493 3.33333 10.0359V5.72678C3.33326 5.20132 3.49876 4.68919 3.80633 4.26314C4.11389 3.8371 4.54789 3.5188 5.04666 3.35345L9.99999 1.71178L14.9533 3.35345ZM9.99999 14.1668C9.83517 14.1668 9.67406 14.2157 9.53702 14.3072C9.39998 14.3988 9.29317 14.5289 9.23009 14.6812C9.16702 14.8335 9.15052 15.001 9.18267 15.1627C9.21483 15.3243 9.29419 15.4728 9.41074 15.5894C9.52728 15.7059 9.67577 15.7853 9.83742 15.8174C9.99907 15.8496 10.1666 15.8331 10.3189 15.77C10.4712 15.7069 10.6013 15.6001 10.6929 15.4631C10.7845 15.3261 10.8333 15.1649 10.8333 15.0001C10.8333 14.7791 10.7455 14.5671 10.5892 14.4109C10.433 14.2546 10.221 14.1668 9.99999 14.1668Z" fill="#316D86"/>
    </g>
    <defs>
        <clipPath id="clip0_77_347">
            <rect width="20" height="20" fill="white"/>
        </clipPath>
    </defs>
</svg>