<svg width="16" height="16" viewBox="0 0 16 16" fill="none" xmlns="http://www.w3.org/2000/svg">
    <path d="M9.414 10.2664L12.4713 7.20709C12.5861 7.08015 12.6477 6.91394 12.6433 6.74286C12.6389 6.57179 12.5689 6.40895 12.4477 6.28807C12.3266 6.16719 12.1636 6.09752 11.9925 6.09349C11.8214 6.08946 11.6554 6.15138 11.5287 6.26642L8.47133 9.32376C8.34631 9.44874 8.17677 9.51895 8 9.51895C7.82322 9.51895 7.65368 9.44874 7.52866 9.32376L4.47133 6.26642C4.34624 6.14142 4.17661 6.07123 3.99976 6.07129C3.82291 6.07135 3.65333 6.14166 3.52833 6.26676C3.40332 6.39185 3.33313 6.56148 3.33319 6.73833C3.33326 6.91517 3.40357 7.08475 3.52866 7.20976L6.586 10.2664C6.96105 10.6414 7.46967 10.852 8 10.852C8.53032 10.852 9.03894 10.6414 9.414 10.2664Z" fill="#64748B"/>
</svg>