<svg width="38" height="38" viewBox="0 0 38 38" fill="none" xmlns="http://www.w3.org/2000/svg">
    <circle cx="19" cy="19" r="17.25" fill="#4178D4" stroke="white" stroke-width="2.5"/>
    <g clip-path="url(#clip0_77_642)">
        <path d="M23.6667 13.6667H23.328L21.872 11.7787C21.6844 11.5372 21.4442 11.3416 21.1698 11.2067C20.8953 11.0718 20.5938 11.0011 20.288 11H17.712C17.4062 11.0011 17.1047 11.0718 16.8302 11.2067C16.5558 11.3416 16.3156 11.5372 16.128 11.7787L14.672 13.6667H14.3333C13.4496 13.6677 12.6024 14.0193 11.9775 14.6441C11.3526 15.269 11.0011 16.1163 11 17V23.6667C11.0011 24.5504 11.3526 25.3976 11.9775 26.0225C12.6024 26.6474 13.4496 26.9989 14.3333 27H23.6667C24.5504 26.9989 25.3976 26.6474 26.0225 26.0225C26.6474 25.3976 26.9989 24.5504 27 23.6667V17C26.9989 16.1163 26.6474 15.269 26.0225 14.6441C25.3976 14.0193 24.5504 13.6677 23.6667 13.6667ZM17.184 12.5933C17.2464 12.5127 17.3265 12.4474 17.418 12.4023C17.5095 12.3573 17.61 12.3337 17.712 12.3333H20.288C20.39 12.3338 20.4905 12.3574 20.582 12.4025C20.6735 12.4475 20.7535 12.5128 20.816 12.5933L21.644 13.6667H16.356L17.184 12.5933ZM25.6667 23.6667C25.6667 24.1971 25.456 24.7058 25.0809 25.0809C24.7058 25.456 24.1971 25.6667 23.6667 25.6667H14.3333C13.8029 25.6667 13.2942 25.456 12.9191 25.0809C12.544 24.7058 12.3333 24.1971 12.3333 23.6667V17C12.3333 16.4696 12.544 15.9609 12.9191 15.5858C13.2942 15.2107 13.8029 15 14.3333 15H23.6667C24.1971 15 24.7058 15.2107 25.0809 15.5858C25.456 15.9609 25.6667 16.4696 25.6667 17V23.6667Z" fill="white"/>
        <path d="M19 16.3335C18.2089 16.3335 17.4355 16.5681 16.7777 17.0076C16.1199 17.4471 15.6072 18.0719 15.3045 18.8028C15.0017 19.5337 14.9225 20.3379 15.0769 21.1139C15.2312 21.8898 15.6122 22.6025 16.1716 23.1619C16.731 23.7213 17.4437 24.1023 18.2196 24.2566C18.9956 24.411 19.7998 24.3318 20.5307 24.029C21.2616 23.7263 21.8864 23.2136 22.3259 22.5558C22.7654 21.898 23 21.1246 23 20.3335C22.9989 19.273 22.5772 18.2562 21.8273 17.5062C21.0773 16.7563 20.0605 16.3346 19 16.3335ZM19 23.0002C18.4726 23.0002 17.957 22.8438 17.5185 22.5507C17.08 22.2577 16.7382 21.8413 16.5363 21.354C16.3345 20.8667 16.2817 20.3305 16.3846 19.8133C16.4875 19.296 16.7414 18.8208 17.1144 18.4479C17.4873 18.0749 17.9625 17.821 18.4798 17.7181C18.997 17.6152 19.5332 17.668 20.0205 17.8698C20.5078 18.0717 20.9242 18.4134 21.2173 18.852C21.5103 19.2905 21.6667 19.8061 21.6667 20.3335C21.6667 21.0407 21.3857 21.719 20.8856 22.2191C20.3855 22.7192 19.7072 23.0002 19 23.0002Z" fill="white"/>
    </g>
    <defs>
        <clipPath id="clip0_77_642">
            <rect width="16" height="16" fill="white" transform="translate(11 11)"/>
        </clipPath>
    </defs>
</svg>