<svg width="24" height="24" viewBox="0 0 24 24" fill="none" xmlns="http://www.w3.org/2000/svg">
    <g clip-path="url(#clip0_2217_331)">
        <path d="M19.675 2.75778C18.408 1.70343 16.9364 0.922939 15.3528 0.465476C13.7692 0.00801355 12.1081 -0.116501 10.474 0.099777C7.45108 0.492495 4.6909 2.02095 2.75394 4.37478C0.816972 6.72862 -0.151582 9.7314 0.0449391 12.7734C0.24146 15.8154 1.58832 18.6686 3.81205 20.7536C6.03578 22.8387 8.96968 23.9993 12.018 23.9998H19C20.3256 23.9982 21.5965 23.4709 22.5338 22.5336C23.4711 21.5962 23.9984 20.3254 24 18.9998V11.3088V11.2458C23.8942 9.61122 23.456 8.01543 22.7124 6.55599C21.9687 5.09655 20.9352 3.80413 19.675 2.75778ZM8.00002 6.99978H12C12.2652 6.99978 12.5196 7.10513 12.7071 7.29267C12.8947 7.48021 13 7.73456 13 7.99978C13 8.26499 12.8947 8.51935 12.7071 8.70688C12.5196 8.89442 12.2652 8.99978 12 8.99978H8.00002C7.7348 8.99978 7.48044 8.89442 7.29291 8.70688C7.10537 8.51935 7.00002 8.26499 7.00002 7.99978C7.00002 7.73456 7.10537 7.48021 7.29291 7.29267C7.48044 7.10513 7.7348 6.99978 8.00002 6.99978ZM16 16.9998H8.00002C7.7348 16.9998 7.48044 16.8944 7.29291 16.7069C7.10537 16.5193 7.00002 16.265 7.00002 15.9998C7.00002 15.7346 7.10537 15.4802 7.29291 15.2927C7.48044 15.1051 7.7348 14.9998 8.00002 14.9998H16C16.2652 14.9998 16.5196 15.1051 16.7071 15.2927C16.8947 15.4802 17 15.7346 17 15.9998C17 16.265 16.8947 16.5193 16.7071 16.7069C16.5196 16.8944 16.2652 16.9998 16 16.9998ZM16 12.9998H8.00002C7.7348 12.9998 7.48044 12.8944 7.29291 12.7069C7.10537 12.5193 7.00002 12.265 7.00002 11.9998C7.00002 11.7346 7.10537 11.4802 7.29291 11.2927C7.48044 11.1051 7.7348 10.9998 8.00002 10.9998H16C16.2652 10.9998 16.5196 11.1051 16.7071 11.2927C16.8947 11.4802 17 11.7346 17 11.9998C17 12.265 16.8947 12.5193 16.7071 12.7069C16.5196 12.8944 16.2652 12.9998 16 12.9998Z" fill="#CBD5E1"/>
    </g>
    <defs>
        <clipPath id="clip0_2217_331">
            <rect width="24" height="24" fill="white"/>
        </clipPath>
    </defs>
</svg>