<svg width="16" height="16" viewBox="0 0 16 16" fill="none" xmlns="http://www.w3.org/2000/svg">
    <g clip-path="url(#clip0_77_207)">
        <path d="M4.66667 14.6667H3.33333C2.8029 14.6667 2.29419 14.456 1.91912 14.0809C1.54405 13.7058 1.33333 13.1971 1.33333 12.6667V3.33333C1.33333 2.8029 1.54405 2.29419 1.91912 1.91912C2.29419 1.54405 2.8029 1.33333 3.33333 1.33333H4.66667C4.84348 1.33333 5.01305 1.2631 5.13807 1.13807C5.2631 1.01305 5.33333 0.843478 5.33333 0.666667C5.33333 0.489856 5.2631 0.320286 5.13807 0.195262C5.01305 0.0702379 4.84348 0 4.66667 0L3.33333 0C2.4496 0.00105857 1.60237 0.352588 0.97748 0.97748C0.352588 1.60237 0.00105857 2.4496 0 3.33333L0 12.6667C0.00105857 13.5504 0.352588 14.3976 0.97748 15.0225C1.60237 15.6474 2.4496 15.9989 3.33333 16H4.66667C4.84348 16 5.01305 15.9298 5.13807 15.8047C5.2631 15.6797 5.33333 15.5101 5.33333 15.3333C5.33333 15.1565 5.2631 14.987 5.13807 14.8619C5.01305 14.7369 4.84348 14.6667 4.66667 14.6667Z" fill="#64748B"/>
        <path d="M12.3586 12.4711L15.4166 9.41378C15.7904 9.03813 16.0003 8.52973 16.0003 7.99978C16.0003 7.46983 15.7904 6.96144 15.4166 6.58578L12.3586 3.52845C12.2329 3.40701 12.0645 3.33981 11.8897 3.34133C11.7149 3.34285 11.5477 3.41297 11.4241 3.53657C11.3005 3.66018 11.2304 3.82738 11.2289 4.00218C11.2273 4.17698 11.2945 4.34538 11.416 4.47112L14.2773 7.33312H3.99998C3.82317 7.33312 3.6536 7.40335 3.52858 7.52838C3.40355 7.6534 3.33331 7.82297 3.33331 7.99978C3.33331 8.17659 3.40355 8.34616 3.52858 8.47119C3.6536 8.59621 3.82317 8.66645 3.99998 8.66645H14.278L11.416 11.5285C11.3523 11.5899 11.3015 11.6635 11.2666 11.7448C11.2316 11.8262 11.2132 11.9137 11.2125 12.0022C11.2117 12.0907 11.2286 12.1785 11.2621 12.2604C11.2956 12.3424 11.3451 12.4168 11.4077 12.4794C11.4703 12.542 11.5447 12.5915 11.6267 12.625C11.7086 12.6585 11.7964 12.6754 11.8849 12.6746C11.9734 12.6738 12.0609 12.6555 12.1422 12.6205C12.2236 12.5856 12.2971 12.5348 12.3586 12.4711Z" fill="#64748B"/>
    </g>
    <defs>
        <clipPath id="clip0_77_207">
            <rect width="16" height="16" fill="white"/>
        </clipPath>
    </defs>
</svg>