<svg width="16" height="16" viewBox="0 0 16 16" fill="none" xmlns="http://www.w3.org/2000/svg">
    <path d="M10.2667 6.58594L7.20733 3.52861C7.0804 3.41384 6.91418 3.35227 6.74311 3.35667C6.57203 3.36106 6.4092 3.43107 6.28831 3.55221C6.16743 3.67335 6.09777 3.83633 6.09374 4.00741C6.08971 4.1785 6.15162 4.34458 6.26667 4.47128L9.324 7.52861C9.44898 7.65363 9.51919 7.82317 9.51919 7.99994C9.51919 8.17672 9.44898 8.34626 9.324 8.47128L6.26667 11.5286C6.14166 11.6537 6.07147 11.8233 6.07153 12.0002C6.0716 12.177 6.14191 12.3466 6.267 12.4716C6.3921 12.5966 6.56172 12.6668 6.73857 12.6667C6.91542 12.6667 7.085 12.5964 7.21 12.4713L10.2667 9.41394C10.6416 9.03889 10.8522 8.53027 10.8522 7.99994C10.8522 7.46961 10.6416 6.961 10.2667 6.58594Z" fill="#64748B"/>
</svg>