<svg width="20" height="20" viewBox="0 0 20 20" fill="none" xmlns="http://www.w3.org/2000/svg">
    <g clip-path="url(#clip0_77_328)">
        <path d="M15.4842 1.78353L10.2633 0.0427007C10.0924 -0.0142336 9.9076 -0.0142336 9.73666 0.0427007L4.51583 1.78353C3.68575 2.05927 2.96367 2.58958 2.45219 3.29913C1.94072 4.00867 1.66586 4.86136 1.66666 5.73603V10.0002C1.66666 16.3027 9.33333 19.7835 9.66166 19.9285C9.76818 19.9759 9.88344 20.0003 9.99999 20.0003C10.1165 20.0003 10.2318 19.9759 10.3383 19.9285C10.6667 19.7835 18.3333 16.3027 18.3333 10.0002V5.73603C18.3341 4.86136 18.0593 4.00867 17.5478 3.29913C17.0363 2.58958 16.3142 2.05927 15.4842 1.78353ZM16.6667 10.0002C16.6667 14.546 11.4008 17.5277 9.99999 18.241C8.59749 17.5302 3.33333 14.5577 3.33333 10.0002V5.73603C3.33337 5.21127 3.49855 4.69982 3.80546 4.27415C4.11237 3.84849 4.54545 3.53019 5.04333 3.36437L9.99999 1.71187L14.9567 3.36437C15.4545 3.53019 15.8876 3.84849 16.1945 4.27415C16.5014 4.69982 16.6666 5.21127 16.6667 5.73603V10.0002Z" fill="#316D86"/>
        <path d="M12.75 6.91673L9.26 10.4167L7.39 8.46673C7.31495 8.38468 7.22425 8.31847 7.12322 8.27202C7.02219 8.22556 6.91289 8.1998 6.80175 8.19624C6.69061 8.19268 6.57988 8.2114 6.47609 8.2513C6.37229 8.29119 6.27754 8.35146 6.19739 8.42854C6.11725 8.50562 6.05335 8.59797 6.00944 8.70013C5.96554 8.80229 5.94253 8.91221 5.94176 9.0234C5.941 9.13459 5.96249 9.24482 6.00498 9.34757C6.04747 9.45033 6.1101 9.54355 6.18917 9.62173L8.11083 11.6217C8.25415 11.7765 8.42737 11.9006 8.62002 11.9866C8.81266 12.0725 9.02074 12.1185 9.23167 12.1217H9.25917C9.46588 12.1224 9.67067 12.082 9.86165 12.0029C10.0526 11.9238 10.226 11.8076 10.3717 11.6609L13.9317 8.1009C14.0094 8.02331 14.0711 7.93116 14.1133 7.82972C14.1554 7.72829 14.1772 7.61954 14.1773 7.5097C14.1774 7.39985 14.1559 7.29106 14.114 7.18953C14.072 7.08801 14.0105 6.99573 13.9329 6.91798C13.8553 6.84023 13.7632 6.77852 13.6617 6.73637C13.5603 6.69423 13.4516 6.67248 13.3417 6.67236C13.2319 6.67225 13.1231 6.69377 13.0216 6.7357C12.92 6.77762 12.8278 6.83914 12.75 6.91673Z" fill="#316D86"/>
    </g>
    <defs>
        <clipPath id="clip0_77_328">
            <rect width="20" height="20" fill="white"/>
        </clipPath>
    </defs>
</svg>