<svg width="20" height="20" viewBox="0 0 20 20" fill="none" xmlns="http://www.w3.org/2000/svg">
    <path d="M9.99999 6.6665C9.34072 6.6665 8.69625 6.862 8.14809 7.22827C7.59993 7.59454 7.17268 8.11514 6.92039 8.72423C6.6681 9.33331 6.60209 10.0035 6.73071 10.6501C6.85932 11.2967 7.17679 11.8907 7.64297 12.3569C8.10914 12.823 8.70309 13.1405 9.34969 13.2691C9.99629 13.3977 10.6665 13.3317 11.2756 13.0794C11.8847 12.8271 12.4053 12.3999 12.7716 11.8517C13.1378 11.3036 13.3333 10.6591 13.3333 9.99984C13.3333 9.11578 12.9821 8.26794 12.357 7.64281C11.7319 7.01769 10.884 6.6665 9.99999 6.6665ZM9.99999 11.6665C9.67036 11.6665 9.34812 11.5688 9.07404 11.3856C8.79996 11.2025 8.58634 10.9422 8.46019 10.6376C8.33405 10.3331 8.30104 9.99799 8.36535 9.67469C8.42966 9.35139 8.58839 9.05441 8.82148 8.82133C9.05457 8.58824 9.35154 8.4295 9.67484 8.36519C9.99814 8.30089 10.3333 8.33389 10.6378 8.46004C10.9423 8.58618 11.2026 8.79981 11.3858 9.07389C11.5689 9.34797 11.6667 9.6702 11.6667 9.99984C11.6667 10.4419 11.4911 10.8658 11.1785 11.1783C10.8659 11.4909 10.442 11.6665 9.99999 11.6665Z" fill="#316D86"/>
    <path d="M17.745 11.5833L17.375 11.37C17.5416 10.4637 17.5416 9.53463 17.375 8.62833L17.745 8.415C18.0295 8.25085 18.2789 8.03226 18.479 7.77172C18.6791 7.51118 18.8258 7.21378 18.911 6.89651C18.9961 6.57925 19.0179 6.24832 18.9751 5.92263C18.9323 5.59694 18.8258 5.28286 18.6617 4.99833C18.4975 4.7138 18.2789 4.46439 18.0184 4.26434C17.7578 4.06428 17.4605 3.91751 17.1432 3.83239C16.8259 3.74726 16.495 3.72547 16.1693 3.76824C15.8436 3.81101 15.5295 3.91751 15.245 4.08167L14.8742 4.29583C14.1738 3.69743 13.3689 3.23354 12.5 2.9275V2.5C12.5 1.83696 12.2366 1.20107 11.7678 0.732233C11.2989 0.263392 10.663 0 10 0C9.33696 0 8.70108 0.263392 8.23224 0.732233C7.7634 1.20107 7.50001 1.83696 7.50001 2.5V2.9275C6.63116 3.23464 5.82655 3.69967 5.12667 4.29917L4.75417 4.08333C4.17954 3.75181 3.49674 3.66214 2.85599 3.83405C2.21524 4.00596 1.66903 4.42536 1.33751 5C1.00598 5.57464 0.916315 6.25743 1.08822 6.89818C1.26013 7.53893 1.67954 8.08515 2.25417 8.41667L2.62417 8.63C2.4576 9.5363 2.4576 10.4654 2.62417 11.3717L2.25417 11.585C1.67954 11.9165 1.26013 12.4627 1.08822 13.1035C0.916315 13.7442 1.00598 14.427 1.33751 15.0017C1.66903 15.5763 2.21524 15.9957 2.85599 16.1676C3.49674 16.3395 4.17954 16.2499 4.75417 15.9183L5.12501 15.7042C5.82564 16.3027 6.63082 16.7666 7.50001 17.0725V17.5C7.50001 18.163 7.7634 18.7989 8.23224 19.2678C8.70108 19.7366 9.33696 20 10 20C10.663 20 11.2989 19.7366 11.7678 19.2678C12.2366 18.7989 12.5 18.163 12.5 17.5V17.0725C13.3688 16.7654 14.1735 16.3003 14.8733 15.7008L15.2458 15.9158C15.8205 16.2474 16.5033 16.337 17.144 16.1651C17.7848 15.9932 18.331 15.5738 18.6625 14.9992C18.994 14.4245 19.0837 13.7417 18.9118 13.101C18.7399 12.4602 18.3205 11.914 17.7458 11.5825L17.745 11.5833ZM15.6217 8.43667C15.9039 9.45922 15.9039 10.5391 15.6217 11.5617C15.5724 11.7396 15.5836 11.9289 15.6536 12.0998C15.7236 12.2707 15.8484 12.4135 16.0083 12.5058L16.9117 13.0275C17.1032 13.138 17.2429 13.3201 17.3002 13.5336C17.3575 13.7472 17.3276 13.9747 17.2171 14.1663C17.1066 14.3578 16.9245 14.4975 16.711 14.5548C16.4974 14.6121 16.2698 14.5822 16.0783 14.4717L15.1733 13.9483C15.0133 13.8556 14.8269 13.8188 14.6435 13.8437C14.4602 13.8686 14.2904 13.9538 14.1608 14.0858C13.4191 14.843 12.4847 15.3833 11.4583 15.6483C11.2792 15.6944 11.1205 15.7987 11.0072 15.9449C10.8939 16.0911 10.8324 16.2709 10.8325 16.4558V17.5C10.8325 17.721 10.7447 17.933 10.5884 18.0893C10.4321 18.2455 10.2202 18.3333 9.99917 18.3333C9.77816 18.3333 9.5662 18.2455 9.40992 18.0893C9.25364 17.933 9.16584 17.721 9.16584 17.5V16.4567C9.16593 16.2717 9.10448 16.092 8.99118 15.9458C8.87787 15.7996 8.71914 15.6952 8.54001 15.6492C7.51363 15.3831 6.57945 14.8416 5.83834 14.0833C5.70878 13.9513 5.53895 13.8661 5.35564 13.8412C5.17232 13.8163 4.98593 13.8531 4.82584 13.9458L3.92251 14.4683C3.8277 14.5239 3.72283 14.5602 3.61394 14.5751C3.50506 14.59 3.3943 14.5832 3.28805 14.5551C3.1818 14.527 3.08216 14.4782 2.99486 14.4114C2.90755 14.3446 2.83432 14.2613 2.77937 14.1661C2.72442 14.0709 2.68884 13.9658 2.67467 13.8568C2.6605 13.7479 2.66804 13.6372 2.69683 13.5311C2.72563 13.425 2.77511 13.3257 2.84245 13.2389C2.90978 13.152 2.99363 13.0793 3.08917 13.025L3.99251 12.5033C4.15246 12.411 4.27723 12.2682 4.34722 12.0973C4.41721 11.9264 4.42845 11.7371 4.37917 11.5592C4.09697 10.5366 4.09697 9.45672 4.37917 8.43417C4.42756 8.25657 4.41579 8.06795 4.34568 7.89774C4.27558 7.72754 4.1511 7.58534 3.99167 7.49333L3.08834 6.97167C2.89683 6.86116 2.75706 6.6791 2.69979 6.46555C2.64251 6.25199 2.67242 6.02442 2.78292 5.83292C2.89343 5.64141 3.07549 5.50164 3.28904 5.44437C3.5026 5.38709 3.73016 5.41699 3.92167 5.5275L4.82667 6.05083C4.98632 6.14376 5.17232 6.18101 5.35544 6.15672C5.53857 6.13244 5.70843 6.048 5.83834 5.91667C6.58008 5.15945 7.51453 4.61918 8.54084 4.35417C8.72053 4.30797 8.87967 4.20313 8.99303 4.05625C9.1064 3.90938 9.16751 3.72887 9.16667 3.54333V2.5C9.16667 2.27899 9.25447 2.06702 9.41075 1.91074C9.56703 1.75446 9.77899 1.66667 10 1.66667C10.221 1.66667 10.433 1.75446 10.5893 1.91074C10.7455 2.06702 10.8333 2.27899 10.8333 2.5V3.54333C10.8332 3.7283 10.8947 3.90804 11.008 4.05423C11.1213 4.20043 11.28 4.30478 11.4592 4.35083C12.4858 4.61679 13.4203 5.15824 14.1617 5.91667C14.2912 6.04872 14.4611 6.13391 14.6444 6.15881C14.8277 6.1837 15.0141 6.14689 15.1742 6.05417L16.0775 5.53167C16.1723 5.47609 16.2772 5.43981 16.3861 5.42492C16.495 5.41003 16.6057 5.41683 16.712 5.44492C16.8182 5.47301 16.9179 5.52184 17.0052 5.58859C17.0925 5.65535 17.1657 5.73872 17.2206 5.83389C17.2756 5.92907 17.3112 6.03417 17.3253 6.14316C17.3395 6.25214 17.332 6.36285 17.3032 6.46891C17.2744 6.57497 17.2249 6.67429 17.1576 6.76114C17.0902 6.848 17.0064 6.92068 16.9108 6.975L16.0075 7.49667C15.8484 7.58892 15.7242 7.73123 15.6545 7.90141C15.5847 8.07159 15.5731 8.26008 15.6217 8.4375V8.43667Z" fill="#316D86"/>
</svg>